<?xml version="1.0" standalone="no"?>
<!DOCTYPE svg PUBLIC "-//W3C//DTD SVG 1.1//EN" "http://www.w3.org/Graphics/SVG/1.1/DTD/svg11.dtd" >
<svg xmlns="http://www.w3.org/2000/svg">
<metadata>
This is a custom SVG webfont generated by Font Squirrel.
Copyright   : Copyright 2002 Superlooper
</metadata>
<defs>
<font id="Supertext01Regular" horiz-adv-x="1433" >
<font-face units-per-em="2048" ascent="1638" descent="-410" />
<missing-glyph horiz-adv-x="1024" />
<glyph unicode=" "  horiz-adv-x="1024" />
<glyph unicode="&#x09;" horiz-adv-x="1024" />
<glyph unicode="&#xa0;" horiz-adv-x="1024" />
<glyph unicode="!" horiz-adv-x="614" d="M0 0v205h205v-205h-205zM0 471v1024h205v-1024h-205z" />
<glyph unicode="&#x22;" horiz-adv-x="1024" d="M0 1495v410h205v-410h-205zM410 1495v410h204v-410h-204z" />
<glyph unicode="#" horiz-adv-x="1843" d="M0 410v204h410v205h-205v205h409v205h205v-205h205v205h205v-205h205v-205h-410v-205h205v-204h-410v-205h-205v205h-204v-205h-205v205h-205zM614 614h205v205h-205v-205z" />
<glyph unicode="$" d="M0 205v205h205v-205h205v409h-205v205h-205v410h205v205h205v204h204v-204h205v-205h205v-205h-205v205h-205v-410h205v-205h205v-409h-205v-205h-205v-205h-204v205h-205v205h-205zM213 819h197v410h-197v-410zM614 205h199v409h-199v-409z" />
<glyph unicode="%" horiz-adv-x="2048" d="M0 0v205h205v205h205v204h198v205h-403v205h-205v410h205v204h409v-204h205v-410h205v205h205v205h205v204h204v-204h-204v-205h-205v-205h-197v-205h402v-205h204v-409h-204v-205h-410v205h-205v409h-205v-204h-204v-205h-205v-205h-205zM213 1024h397v410h-397v-410z M614 819h199v205h-199v-205zM825 614h199v205h-199v-205zM1032 205h398v409h-398v-409z" />
<glyph unicode="&#x26;" horiz-adv-x="1843" d="M0 205v409h205v205h-205v410h205v205h409v-205h205v-205h-205v-205h205v-205h205v205h205v-205h-205v-204h205v-205h205v-205h-205v205h-205v205h-205v-205h-205v-205h-409v205h-205zM213 205h395v205h205v204h-205v205h-198v-205h-197v-409zM213 819h190v205h205v205 h-395v-410z" />
<glyph unicode="'" horiz-adv-x="614" d="M0 1495v410h205v-410h-205z" />
<glyph unicode="(" horiz-adv-x="1024" d="M0 410v614h205v410h205v204h204v-204h-204v-410h-205v-614h205v-410h204v-205h-204v205h-205v410h-205z" />
<glyph unicode=")" horiz-adv-x="1024" d="M0 0h205v410h205v614h-205v410h-205v204h205v-204h205v-410h204v-614h-204v-410h-205v-205h-205v205z" />
<glyph unicode="*" d="M0 410v204h205v410h-205v205h205v-205h205v410h204v-410h205v205h205v-205h-205v-410h205v-204h-205v204h-205v205h-204v-205h-205v-204h-205z" />
<glyph unicode="+" d="M0 410v204h410v410h204v-410h410v-204h-410v-410h-204v410h-410z" />
<glyph unicode="," horiz-adv-x="614" d="M0 -205v410h205v-410h-205z" />
<glyph unicode="-" horiz-adv-x="1228" d="M0 410v204h819v-204h-819z" />
<glyph unicode="." horiz-adv-x="614" d="M0 0v205h205v-205h-205z" />
<glyph unicode="/" horiz-adv-x="1228" d="M0 0v410h205v409h205v410h204v409h205v-409h-205v-410h-204v-409h-205v-410h-205z" />
<glyph unicode="0" d="M0 205v1024h205v205h655v-205h164v-1024h-164v-205h-655v205h-205zM225 205h615v1024h-615v-1024z" />
<glyph unicode="1" horiz-adv-x="1024" d="M0 819v205h205v205h205v205h204v-1434h-204v1024h-205v-205h-205z" />
<glyph unicode="2" d="M0 0v205h205v205h205v204h204v205h205v410h-614v-205h-205v205h205v205h614v-205h205v-410h-205v-205h-205v-204h-204v-205h614v-205h-1024z" />
<glyph unicode="3" d="M0 205v205h205v-205h614v409h-614v205h205v205h204v205h-614v205h1024v-205h-205v-205h-205v-205h205v-205h205v-409h-205v-205h-614v205h-205z" />
<glyph unicode="4" horiz-adv-x="1638" d="M0 410v204h205v205h205v205h204v205h205v205h205v-820h205v-204h-205v-410h-205v410h-819zM416 614h403v410h-196v-205h-207v-205z" />
<glyph unicode="5" d="M0 205v205h205v-205h614v614h-819v615h1024v-205h-819v-205h614v-205h205v-614h-205v-205h-614v205h-205z" />
<glyph unicode="6" d="M0 205v819h205v205h205v205h409v-205h-409v-205h-205v-205h614v-205h205v-409h-205v-205h-614v205h-205zM225 205h574v409h-574v-409z" />
<glyph unicode="7" d="M0 1229v205h1024v-615h-205v-409h-205v-410h-204v410h204v409h205v410h-819z" />
<glyph unicode="8" d="M0 205v409h201v205h-201v410h201v205h659v-205h164v-410h-164v-205h164v-409h-164v-205h-659v205h-201zM205 205h635v409h-635v-409zM205 819h635v410h-635v-410z" />
<glyph unicode="9" d="M0 819v410h205v205h614v-205h205v-819h-205v-205h-205v-205h-409v205h409v205h205v204h-614v205h-205zM225 819h574v410h-574v-410z" />
<glyph unicode=":" horiz-adv-x="614" d="M0 0v205h205v-205h-205zM0 614v205h205v-205h-205z" />
<glyph unicode=";" horiz-adv-x="614" d="M0 -205v410h205v-410h-205zM0 614v205h205v-205h-205z" />
<glyph unicode="&#x3c;" horiz-adv-x="1024" d="M0 614v205h205v205h205v205h204v-205h-204v-205h-205v-205h205v-204h204v-205h-204v205h-205v204h-205z" />
<glyph unicode="=" horiz-adv-x="1228" d="M0 0v205h819v-205h-819zM0 614v205h819v-205h-819z" />
<glyph unicode="&#x3e;" horiz-adv-x="1024" d="M0 205v205h205v204h205v205h-205v205h-205v205h205v-205h205v-205h204v-205h-204v-204h-205v-205h-205z" />
<glyph unicode="?" d="M0 1024v205h205v205h614v-205h205v-410h-205v-205h-205v-204h-204v204h204v205h205v410h-614v-205h-205zM410 0v205h204v-205h-204z" />
<glyph unicode="@" horiz-adv-x="1843" d="M0 410v614h199v205h211v205h614v-205h205v-205h205v-410h-205v-204h-811v-205h401v-205h-409v205h-211v205h-199zM205 410h205v614h-205v-614zM416 1024h602v205h-602v-205zM614 614h205v205h-205v-205zM1024 614h199v410h-199v-410z" />
<glyph unicode="A" d="M0 0v614h205v430h205v390h204v-390h205v-430h205v-614h-205v410h-614v-410h-205zM410 614h204v410h-204v-410z" />
<glyph unicode="B" d="M0 0v1434h819v-205h205v-410h-205v-205h205v-409h-205v-205h-819zM205 205h594v409h-594v-409zM205 819h594v410h-594v-410z" />
<glyph unicode="C" d="M0 205v1024h205v205h614v-205h205v-205h-205v205h-614v-1024h614v205h205v-205h-205v-205h-614v205h-205z" />
<glyph unicode="D" d="M0 0v1434h655v-205h185v-205h184v-614h-184v-205h-185v-205h-655zM205 205h430v205h184v614h-184v205h-430v-1024z" />
<glyph unicode="E" horiz-adv-x="1228" d="M0 0v1434h819v-205h-614v-410h450v-205h-450v-409h614v-205h-819z" />
<glyph unicode="F" horiz-adv-x="1228" d="M0 0v1434h819v-205h-614v-410h450v-205h-450v-614h-205z" />
<glyph unicode="G" d="M0 205v1024h205v205h614v-205h205v-205h-205v205h-614v-1024h614v409h-205v205h410v-614h-205v-205h-614v205h-205z" />
<glyph unicode="H" d="M0 0v1434h205v-615h614v615h205v-1434h-205v614h-614v-614h-205z" />
<glyph unicode="I" horiz-adv-x="614" d="M0 0v1434h205v-1434h-205z" />
<glyph unicode="J" d="M0 205v409h205v-409h614v1229h205v-1229h-205v-205h-614v205h-205z" />
<glyph unicode="K" d="M0 0v1434h205v-615h205v205h204v205h205v205h205v-205h-205v-205h-205v-205h-204v-205h204v-204h205v-205h205v-205h-205v205h-205v205h-204v204h-205v-614h-205z" />
<glyph unicode="L" horiz-adv-x="1228" d="M0 0v1434h205v-1229h614v-205h-819z" />
<glyph unicode="M" horiz-adv-x="1843" d="M0 0v1434h205v-205h205v-205h204v-205h205v205h205v205h205v205h205v-1434h-205v1024h-205v-205h-205v-205h-205v205h-204v205h-205v-1024h-205z" />
<glyph unicode="N" d="M0 0v1434h205v-410h205v-205h204v-205h205v820h205v-1434h-205v410h-205v204h-204v205h-205v-819h-205z" />
<glyph unicode="O" d="M0 205v1024h205v205h655v-205h164v-1024h-164v-205h-655v205h-205zM225 205h615v1024h-615v-1024z" />
<glyph unicode="P" d="M0 0v1434h819v-205h205v-615h-205v-204h-614v-410h-205zM205 614h594v615h-594v-615z" />
<glyph unicode="Q" d="M0 205v1024h184v205h676v-205h164v-1024h-164v-205h164v-205h-205v205h-635v205h-184zM205 205h635v1024h-635v-1024z" />
<glyph unicode="R" d="M0 0v1434h819v-205h205v-410h-205v-409h205v-410h-205v410h-205v204h-409v-614h-205zM205 819h594v410h-594v-410z" />
<glyph unicode="S" d="M0 205v205h205v-205h614v409h-614v205h-205v410h205v205h614v-205h205v-205h-205v205h-614v-410h614v-205h205v-409h-205v-205h-614v205h-205z" />
<glyph unicode="T" d="M0 1229v205h1024v-205h-410v-1229h-204v1229h-410z" />
<glyph unicode="U" d="M0 205v1229h205v-1229h614v1229h205v-1229h-205v-205h-614v205h-205z" />
<glyph unicode="V" d="M0 819v615h205v-615h205v-409h204v409h205v615h205v-615h-205v-409h-205v-410h-204v410h-205v409h-205z" />
<glyph unicode="W" horiz-adv-x="1843" d="M0 819v615h205v-615h205v-409h204v409h205v-409h205v409h205v615h205v-615h-205v-409h-205v-410h-205v410h-205v-410h-204v410h-205v409h-205z" />
<glyph unicode="X" d="M0 0v410h205v204h205v205h-205v205h-205v410h205v-410h205v-205h204v205h205v410h205v-410h-205v-205h-205v-205h205v-204h205v-410h-205v410h-205v204h-204v-204h-205v-410h-205z" />
<glyph unicode="Y" d="M0 1024v410h205v-410h205v-205h204v205h205v410h205v-410h-205v-205h-205v-819h-204v819h-205v205h-205z" />
<glyph unicode="Z" d="M0 0v410h205v204h205v205h204v205h205v205h-819v205h1024v-410h-205v-205h-205v-205h-204v-204h-205v-205h819v-205h-1024z" />
<glyph unicode="[" horiz-adv-x="1024" d="M0 -205v1843h614v-204h-409v-1434h409v-205h-614z" />
<glyph unicode="\" horiz-adv-x="1228" d="M0 1229v409h205v-409h205v-410h204v-409h205v-410h-205v410h-204v409h-205v410h-205z" />
<glyph unicode="]" horiz-adv-x="1024" d="M0 0h410v1434h-410v204h614v-1843h-614v205z" />
<glyph unicode="_" horiz-adv-x="1638" d="M0 0v205h1229v-205h-1229z" />
<glyph unicode="`" horiz-adv-x="819" d="M0 1495v205h205v-205h205v-205h-205v205h-205z" />
<glyph unicode="a" horiz-adv-x="1228" d="M0 205v205h205v204h389v205h-389v205h409v-205h205v-819h-614v205h-205zM225 205h389v205h-389v-205z" />
<glyph unicode="b" horiz-adv-x="1228" d="M0 0v1434h205v-410h450v-205h164v-614h-164v-205h-655zM205 205h430v614h-430v-614z" />
<glyph unicode="c" horiz-adv-x="1228" d="M0 205v614h205v205h409v-205h205v-205h-205v205h-409v-614h409v205h205v-205h-205v-205h-409v205h-205z" />
<glyph unicode="d" horiz-adv-x="1228" d="M0 205v614h164v205h450v410h205v-1434h-655v205h-164zM184 205h430v614h-430v-614z" />
<glyph unicode="e" horiz-adv-x="1228" d="M0 205v614h205v205h409v-205h205v-409h-614v-205h409v-205h-409v205h-205zM225 614h369v205h-369v-205z" />
<glyph unicode="f" horiz-adv-x="1024" d="M0 819v205h205v205h205v205h204v-205h-204v-205h204v-205h-204v-819h-205v819h-205z" />
<glyph unicode="g" horiz-adv-x="1228" d="M0 205v614h205v205h614v-1229h-205v-205h-409v205h409v205h-409v205h-205zM225 205h389v614h-389v-614z" />
<glyph unicode="h" horiz-adv-x="1228" d="M0 0v1434h205v-410h409v-205h205v-819h-205v819h-409v-819h-205z" />
<glyph unicode="i" horiz-adv-x="614" d="M0 0v1024h205v-1024h-205zM0 1229v205h205v-205h-205z" />
<glyph unicode="j" horiz-adv-x="819" d="M0 -205h205v1229h205v-1229h-205v-205h-205v205zM205 1229v205h205v-205h-205z" />
<glyph unicode="k" horiz-adv-x="1228" d="M0 0v1434h205v-820h205v205h204v205h205v-205h-205v-205h-204v-204h204v-205h205v-205h-205v205h-204v205h-205v-410h-205z" />
<glyph unicode="l" horiz-adv-x="614" d="M0 0v1434h205v-1434h-205z" />
<glyph unicode="m" horiz-adv-x="1843" d="M0 0v1024h614v-205h205v205h410v-205h205v-819h-205v819h-410v-819h-205v819h-409v-819h-205z" />
<glyph unicode="n" horiz-adv-x="1228" d="M0 0v1024h614v-205h205v-819h-205v819h-409v-819h-205z" />
<glyph unicode="o" horiz-adv-x="1228" d="M0 205v614h205v205h409v-205h205v-614h-205v-205h-409v205h-205zM225 205h369v614h-369v-614z" />
<glyph unicode="p" horiz-adv-x="1228" d="M0 -410v1434h655v-205h164v-614h-164v-205h-450v-410h-205zM205 205h430v614h-430v-614z" />
<glyph unicode="q" horiz-adv-x="1228" d="M0 205v614h164v205h655v-1434h-205v410h-450v205h-164zM184 205h430v614h-430v-614z" />
<glyph unicode="r" horiz-adv-x="1228" d="M0 0v1024h205v-205h205v205h409v-205h-409v-205h-205v-614h-205z" />
<glyph unicode="s" horiz-adv-x="1228" d="M0 0v205h614v205h-409v204h-205v205h205v205h614v-205h-614v-205h409v-204h205v-205h-205v-205h-614z" />
<glyph unicode="t" horiz-adv-x="1024" d="M0 819v205h205v410h205v-410h204v-205h-204v-614h204v-205h-204v205h-205v614h-205z" />
<glyph unicode="u" horiz-adv-x="1228" d="M0 205v819h205v-819h409v819h205v-819h-205v-205h-409v205h-205z" />
<glyph unicode="v" d="M0 819v205h205v-205h205v-409h204v409h205v205h205v-205h-205v-409h-205v-410h-204v410h-205v409h-205z" />
<glyph unicode="w" horiz-adv-x="1843" d="M0 819v205h205v-205h205v-409h204v409h205v-409h205v409h205v205h205v-205h-205v-409h-205v-410h-205v410h-205v-410h-204v410h-205v409h-205z" />
<glyph unicode="x" d="M0 0v205h205v205h205v204h-205v205h-205v205h205v-205h205v-205h204v205h205v205h205v-205h-205v-205h-205v-204h205v-205h205v-205h-205v205h-205v205h-204v-205h-205v-205h-205z" />
<glyph unicode="y" d="M0 -205h410v410h-205v409h-205v410h205v-410h205v-409h204v409h205v410h205v-410h-205v-409h-205v-410h-204v-205h-410v205z" />
<glyph unicode="z" d="M0 0v205h205v205h205v204h204v205h-614v205h1024v-205h-205v-205h-205v-204h-204v-205h614v-205h-1024z" />
<glyph unicode="{" horiz-adv-x="1024" d="M0 614v205h205v615h205v204h204v-204h-204v-615h-205v-205h205v-614h204v-205h-204v205h-205v614h-205z" />
<glyph unicode="|" horiz-adv-x="614" d="M0 -205v1843h205v-1843h-205z" />
<glyph unicode="}" horiz-adv-x="1024" d="M0 0h205v614h205v205h-205v615h-205v204h205v-204h205v-615h204v-205h-204v-614h-205v-205h-205v205z" />
<glyph unicode="&#xaa;" horiz-adv-x="1228" d="M0 205v205h205v204h389v205h-389v205h409v-205h205v-819h-614v205h-205zM225 205h389v205h-389v-205z" />
<glyph unicode="&#xad;" d="M0 410v204h1024v-204h-1024z" />
<glyph unicode="&#x2212;" d="M0 410v204h1024v-204h-1024z" />
<glyph unicode="&#xb2;" d="M0 0v205h205v205h205v204h204v205h205v410h-614v-205h-205v205h205v205h614v-205h205v-410h-205v-205h-205v-204h-204v-205h614v-205h-1024z" />
<glyph unicode="&#xb3;" d="M0 205v205h205v-205h614v409h-614v205h205v205h204v205h-614v205h1024v-205h-205v-205h-205v-205h205v-205h205v-409h-205v-205h-614v205h-205z" />
<glyph unicode="&#xb4;" horiz-adv-x="819" d="M0 1290v205h205v205h205v-205h-205v-205h-205z" />
<glyph unicode="&#xb9;" horiz-adv-x="1024" d="M0 819v205h205v205h205v205h204v-1434h-204v1024h-205v-205h-205z" />
<glyph unicode="&#xba;" horiz-adv-x="1228" d="M0 205v614h205v205h409v-205h205v-614h-205v-205h-409v205h-205zM225 205h369v614h-369v-614z" />
<glyph unicode="&#xc0;" d="M205 1761v205h205v-205h205v-205h-205v205h-205zM0 0v614h205v430h205v390h204v-390h205v-430h205v-614h-205v410h-614v-410h-205zM410 614h204v410h-204v-410z" />
<glyph unicode="&#xc1;" d="M410 1556v205h205v205h205v-205h-205v-205h-205zM0 0v614h205v430h205v390h204v-390h205v-430h205v-614h-205v410h-614v-410h-205zM410 614h204v410h-204v-410z" />
<glyph unicode="&#xc4;" d="M0 0v614h205v430h205v390h204v-390h205v-430h205v-614h-205v410h-614v-410h-205zM205 1638v205h205v-205h-205zM410 614h204v410h-204v-410zM614 1638v205h205v-205h-205z" />
<glyph unicode="&#xc8;" horiz-adv-x="1228" d="M102 1761v205h205v-205h205v-205h-205v205h-205zM0 0v1434h819v-205h-614v-410h450v-205h-450v-409h614v-205h-819z" />
<glyph unicode="&#xc9;" horiz-adv-x="1228" d="M307 1556v205h205v205h205v-205h-205v-205h-205zM0 0v1434h819v-205h-614v-410h450v-205h-450v-409h614v-205h-819z" />
<glyph unicode="&#xcc;" horiz-adv-x="614" d="M-205 1761v205h205v-205h205v-205h-205v205h-205zM0 0v1434h205v-1434h-205z" />
<glyph unicode="&#xcd;" horiz-adv-x="614" d="M0 1556v205h205v205h205v-205h-205v-205h-205zM0 0v1434h205v-1434h-205z" />
<glyph unicode="&#xd2;" d="M225 1761v205h205v-205h205v-205h-205v205h-205zM0 205v1024h205v205h655v-205h164v-1024h-164v-205h-655v205h-205zM225 205h615v1024h-615v-1024z" />
<glyph unicode="&#xd3;" d="M430 1556v205h205v205h205v-205h-205v-205h-205zM0 205v1024h205v205h655v-205h164v-1024h-164v-205h-655v205h-205zM225 205h615v1024h-615v-1024z" />
<glyph unicode="&#xd6;" d="M0 205v1024h205v205h614v-205h205v-1024h-205v-205h-614v205h-205zM205 1638v205h205v-205h-205zM225 205h574v1024h-574v-1024zM614 1638v205h205v-205h-205z" />
<glyph unicode="&#xd9;" d="M205 1761v205h205v-205h205v-205h-205v205h-205zM0 205v1229h205v-1229h614v1229h205v-1229h-205v-205h-614v205h-205z" />
<glyph unicode="&#xda;" d="M410 1556v205h205v205h205v-205h-205v-205h-205zM0 205v1229h205v-1229h614v1229h205v-1229h-205v-205h-614v205h-205z" />
<glyph unicode="&#xdc;" d="M0 205v1229h205v-1229h614v1229h205v-1229h-205v-205h-614v205h-205zM205 1638v205h205v-205h-205zM614 1638v205h205v-205h-205z" />
<glyph unicode="&#xdd;" d="M410 1556v205h205v205h205v-205h-205v-205h-205zM0 1024v410h205v-410h205v-205h204v205h205v410h205v-410h-205v-205h-205v-819h-204v819h-205v205h-205z" />
<glyph unicode="&#xdf;" d="M0 0v1229h205v205h409v-205h205v-205h-205v-205h205v-205h205v-409h-205v-205h-409v205h409v409h-409v410h204v205h-409v-1229h-205z" />
<glyph unicode="&#xe0;" horiz-adv-x="1228" d="M102 1352v205h205v-205h205v-205h-205v205h-205zM0 205v205h205v204h389v205h-389v205h409v-205h205v-819h-614v205h-205zM225 205h389v205h-389v-205z" />
<glyph unicode="&#xe1;" horiz-adv-x="1228" d="M307 1147v205h205v205h205v-205h-205v-205h-205zM0 205v205h205v204h389v205h-389v205h409v-205h205v-819h-614v205h-205zM225 205h389v205h-389v-205z" />
<glyph unicode="&#xe4;" horiz-adv-x="1228" d="M0 205v205h205v204h389v205h-389v205h409v-205h205v-819h-614v205h-205zM0 1229v205h205v-205h-205zM225 205h389v205h-389v-205zM614 1229v205h205v-205h-205z" />
<glyph unicode="&#xe8;" horiz-adv-x="1228" d="M102 1352v205h205v-205h205v-205h-205v205h-205zM0 205v614h205v205h409v-205h205v-409h-614v-205h409v-205h-409v205h-205zM225 614h369v205h-369v-205z" />
<glyph unicode="&#xe9;" horiz-adv-x="1228" d="M307 1147v205h205v205h205v-205h-205v-205h-205zM0 205v614h205v205h409v-205h205v-409h-614v-205h409v-205h-409v205h-205zM225 614h369v205h-369v-205z" />
<glyph unicode="&#xec;" horiz-adv-x="614" d="M-205 1761v205h205v-205h205v-205h-205v205h-205zM0 0v1024h205v-1024h-205zM0 1229v205h205v-205h-205z" />
<glyph unicode="&#xed;" horiz-adv-x="614" d="M0 1556v205h205v205h205v-205h-205v-205h-205zM0 0v1024h205v-1024h-205zM0 1229v205h205v-205h-205z" />
<glyph unicode="&#xf2;" horiz-adv-x="1228" d="M102 1352v205h205v-205h205v-205h-205v205h-205zM0 205v614h205v205h409v-205h205v-614h-205v-205h-409v205h-205zM225 205h369v614h-369v-614z" />
<glyph unicode="&#xf3;" horiz-adv-x="1228" d="M307 1147v205h205v205h205v-205h-205v-205h-205zM0 205v614h205v205h409v-205h205v-614h-205v-205h-409v205h-205zM225 205h369v614h-369v-614z" />
<glyph unicode="&#xf6;" horiz-adv-x="1228" d="M0 205v614h205v205h409v-205h205v-614h-205v-205h-409v205h-205zM0 1229v205h205v-205h-205zM225 205h369v614h-369v-614zM614 1229v205h205v-205h-205z" />
<glyph unicode="&#xf9;" horiz-adv-x="1228" d="M102 1352v205h205v-205h205v-205h-205v205h-205zM0 205v819h205v-819h409v819h205v-819h-205v-205h-409v205h-205z" />
<glyph unicode="&#xfa;" horiz-adv-x="1228" d="M307 1147v205h205v205h205v-205h-205v-205h-205zM0 205v819h205v-819h409v819h205v-819h-205v-205h-409v205h-205z" />
<glyph unicode="&#xfc;" horiz-adv-x="1228" d="M0 205v819h205v-819h409v819h205v-819h-205v-205h-409v205h-205zM0 1229v205h205v-205h-205zM614 1229v205h205v-205h-205z" />
<glyph unicode="&#xfd;" d="M410 1147v205h205v205h205v-205h-205v-205h-205zM0 -205h410v410h-205v409h-205v410h205v-410h205v-409h204v409h205v410h205v-410h-205v-409h-205v-410h-204v-205h-410v205z" />
<glyph unicode="&#x152;" horiz-adv-x="2662" d="M1434 0v1434h819v-205h-614v-410h450v-205h-450v-409h614v-205h-819zM0 205v1024h205v205h655v-205h164v-1024h-164v-205h-655v205h-205zM225 205h615v1024h-615v-1024z" />
<glyph unicode="&#x153;" horiz-adv-x="2457" d="M1229 205v614h205v205h409v-205h205v-409h-614v-205h409v-205h-409v205h-205zM1454 614h369v205h-369v-205zM0 205v614h205v205h409v-205h205v-614h-205v-205h-409v205h-205zM225 205h369v614h-369v-614z" />
<glyph unicode="&#x2000;" horiz-adv-x="983" />
<glyph unicode="&#x2001;" horiz-adv-x="1966" />
<glyph unicode="&#x2002;" horiz-adv-x="983" />
<glyph unicode="&#x2003;" horiz-adv-x="1966" />
<glyph unicode="&#x2004;" horiz-adv-x="655" />
<glyph unicode="&#x2005;" horiz-adv-x="491" />
<glyph unicode="&#x2006;" horiz-adv-x="327" />
<glyph unicode="&#x2007;" horiz-adv-x="327" />
<glyph unicode="&#x2008;" horiz-adv-x="245" />
<glyph unicode="&#x2009;" horiz-adv-x="393" />
<glyph unicode="&#x200a;" horiz-adv-x="108" />
<glyph unicode="&#x2010;" horiz-adv-x="1228" d="M0 410v204h819v-204h-819z" />
<glyph unicode="&#x2011;" horiz-adv-x="1228" d="M0 410v204h819v-204h-819z" />
<glyph unicode="&#x2012;" horiz-adv-x="1228" d="M0 410v204h819v-204h-819z" />
<glyph unicode="&#x2013;" horiz-adv-x="1024" d="M205 512v205h614v-205h-614z" />
<glyph unicode="&#x2014;" horiz-adv-x="2048" d="M205 512v205h1638v-205h-1638z" />
<glyph unicode="&#x2018;" horiz-adv-x="819" d="M0 1495v205h205v-205h205v-205h-205v205h-205z" />
<glyph unicode="&#x2019;" horiz-adv-x="614" d="M0 1495v410h205v-410h-205z" />
<glyph unicode="&#x201c;" horiz-adv-x="1024" d="M0 1495v410h205v-410h-205zM410 1495v410h204v-410h-204z" />
<glyph unicode="&#x201d;" horiz-adv-x="1024" d="M0 1495v410h205v-410h-205zM410 1495v410h204v-410h-204z" />
<glyph unicode="&#x2026;" horiz-adv-x="1843" d="M1229 0v205h205v-205h-205zM614 0v205h205v-205h-205zM0 0v205h205v-205h-205z" />
<glyph unicode="&#x202f;" horiz-adv-x="393" />
<glyph unicode="&#x2039;" horiz-adv-x="1024" d="M0 614v205h205v205h205v205h204v-205h-204v-205h-205v-205h205v-204h204v-205h-204v205h-205v204h-205z" />
<glyph unicode="&#x203a;" horiz-adv-x="1024" d="M0 205v205h205v204h205v205h-205v205h-205v205h205v-205h205v-205h204v-205h-204v-204h-205v-205h-205z" />
<glyph unicode="&#x205f;" horiz-adv-x="491" />
<glyph unicode="&#x2122;" horiz-adv-x="3276" d="M1434 0v1434h205v-205h205v-205h204v-205h205v205h205v205h205v205h205v-1434h-205v1024h-205v-205h-205v-205h-205v205h-204v205h-205v-1024h-205zM0 1229v205h1024v-205h-410v-1229h-204v1229h-410z" />
<glyph unicode="&#xe000;" horiz-adv-x="1025" d="M0 1025h1025v-1025h-1025v1025z" />
<glyph unicode="&#xfb01;" horiz-adv-x="1638" d="M1024 0v1024h205v-1024h-205zM1024 1229v205h205v-205h-205zM0 819v205h205v205h205v205h204v-205h-204v-205h204v-205h-204v-819h-205v819h-205z" />
<glyph unicode="&#xfb02;" horiz-adv-x="1638" d="M1024 0v1434h205v-1434h-205zM0 819v205h205v205h205v205h204v-205h-204v-205h204v-205h-204v-819h-205v819h-205z" />
<glyph unicode="&#xfb03;" horiz-adv-x="2662" d="M2048 0v1024h205v-1024h-205zM2048 1229v205h205v-205h-205zM1024 819v205h205v205h205v205h204v-205h-204v-205h204v-205h-204v-819h-205v819h-205zM0 819v205h205v205h205v205h204v-205h-204v-205h204v-205h-204v-819h-205v819h-205z" />
<glyph unicode="&#xfb04;" horiz-adv-x="2662" d="M2048 0v1434h205v-1434h-205zM1024 819v205h205v205h205v205h204v-205h-204v-205h204v-205h-204v-819h-205v819h-205zM0 819v205h205v205h205v205h204v-205h-204v-205h204v-205h-204v-819h-205v819h-205z" />
</font>
</defs>
</svg>
